# xmcd
#
# Track frame offsets:
#	150
#	6262
#	24435
#	46059
#	58861
#	73007
#	89451
#	105237
#	111047
#	131151
#	151765
#	173683
#	179613
#
# Disc length: 2602 seconds
#
# Revision: 1
# Processed by: cddbd v1.5.2PL0 Copyright (c) Steve Scherf et al.
# Submitted via: audiograbber 1.83.01
#
DISCID=a20a280d
DTITLE=Carla Diamond - Unearthed
DYEAR=2007
DGENRE=R&B
TTITLE0=Words
TTITLE1=Thank You (Mr Mandela)
TTITLE2=Let Me In
TTITLE3=Somebody
TTITLE4=Have Faith
TTITLE5=Got To Work Hard
TTITLE6=So Fine
TTITLE7=Request Love
TTITLE8=Love Calendar
TTITLE9=Forever
TTITLE10=Just Like You Did
TTITLE11=Feeling Better
TTITLE12=The Heat
EXTD=Great new voice/songwriter from South Africa
EXTT0=
EXTT1=
EXTT2=
EXTT3=
EXTT4=
EXTT5=
EXTT6=
EXTT7=
EXTT8=
EXTT9=
EXTT10=
EXTT11=
EXTT12=
PLAYORDER=
